<svg width="30" height="30" viewBox="0 0 30 30" fill="none" xmlns="http://www.w3.org/2000/svg">
<g clip-path="url(#clip0_3507_121)">
<path d="M14.9998 12.2727V18.0818H23.0725C22.718 19.95 21.6542 21.5319 20.0588 22.5955L24.9269 26.3728C27.7633 23.7547 29.3997 19.9092 29.3997 15.341C29.3997 14.2774 29.3042 13.2546 29.1269 12.2729L14.9998 12.2727Z" fill="#171717"/>
<path d="M6.59333 17.855L5.49538 18.6955L1.60895 21.7227C4.07712 26.6181 9.13584 30 14.9994 30C19.0493 30 22.4447 28.6636 24.9266 26.3727L20.0585 22.5954C18.7221 23.4954 17.0175 24.0409 14.9994 24.0409C11.0995 24.0409 7.78591 21.4091 6.59946 17.8636L6.59333 17.855Z" fill="#171717"/>
<path d="M1.60897 8.27722C0.586302 10.2953 0 12.5726 0 14.9999C0 17.4271 0.586302 19.7044 1.60897 21.7225C1.60897 21.736 6.59997 17.8498 6.59997 17.8498C6.29997 16.9498 6.12265 15.9953 6.12265 14.9997C6.12265 14.0041 6.29997 13.0496 6.59997 12.1496L1.60897 8.27722Z" fill="#171717"/>
<path d="M14.9997 5.97272C17.2089 5.97272 19.1725 6.73634 20.7406 8.20909L25.0361 3.91369C22.4315 1.48646 19.0498 0 14.9997 0C9.13615 0 4.07712 3.36818 1.60895 8.27728L6.59979 12.15C7.78608 8.60452 11.0998 5.97272 14.9997 5.97272Z" fill="#171717"/>
</g>
<defs>
<clipPath id="clip0_3507_121">
<rect width="30" height="30" fill="white"/>
</clipPath>
</defs>
</svg>
